<svg xmlns="http://www.w3.org/2000/svg" viewBox="0 0 512 512" height="64px" width="64px">
  <path fill="#ffffff" d="M167.1 47.2c-9.5-4.5-19.5-6.5-29.5-6.5-10.5 0-20 2-29.5 6.5-20.3 9-34.2 26.2-40.2 46.5-6.2 20.9-2.7 43.2 10.1 59.7l-35.7 32.7c-7.7 7.1-6.3 18.7 2.1 25.7 3.3 3 7.2 4.5 11.2 4.5 4.2 0 8.2-1.5 11.2-4.5l35.7-32.7c12.8 16.5 16 36.8 10.1 59.7-6.1 20.3-19.9 37.5-40.2 46.5-9.5 4.5-19.5 6.5-29.5 6.5-10.5 0-20-2-29.5-6.5-49.1-22.5-75-73.5-60-122.5 15-49 70.3-84.5 119.4-69.2l29.5 12.5c8 3.3 17-1.2 20-9.2l12.5-29.5c-15-49-70.3-84.5-119.4-69.2-22.5 9.5-34.5 30.1-36.8 54.5-2.5 24.5 4.3 46.1 20.2 63.3 9.5 9.5 20.3 14.2 32 14.2 11.7 0 22.5-4.7 32-14.2 15.9-17.2 22.7-38.8 20.2-63.3-2.3-24.4-14.3-45-36.8-54.5-49-15-104.4 19.7-119.4 69.2l12.5 29.5c3 7.8 11.7 12.5 20 9.2l29.5-12.5c49.1-15 104.4 19.7 119.4 69.2 15 49-10.9 99.9-60 122.5z"/>
</svg>
