<svg xmlns="http://www.w3.org/2000/svg" viewBox="0 0 512 512" width="64" height="64">
  <path fill="#0366D6" d="M164.9 256.5l-55.3-55.3c-9.7-9.7-9.7-25.3 0-35 9.7-9.7 25.3-9.7 35 0l55.3 55.3c9.7 9.7 9.7 25.3 0 35-4.8 4.8-11.3 7.3-18.3 7.3s-13.5-2.5-18.3-7.3zM256.5 256.5c-9.7-9.7-25.3-9.7-35 0-9.7 9.7-9.7 25.3 0 35l55.3 55.3c4.8 4.8 11.3 7.3 18.3 7.3s13.5-2.5 18.3-7.3c9.7-9.7 9.7-25.3 0-35L256.5 256.5zM447.1 256.5c-9.7-9.7-25.3-9.7-35 0-9.7 9.7-9.7 25.3 0 35l55.3 55.3c4.8 4.8 11.3 7.3 18.3 7.3s13.5-2.5 18.3-7.3c9.7-9.7 9.7-25.3 0-35L447.1 256.5zM270.5 84.3C270.5 37.7 307.2 1.1 354 1.1c46.8 0 83.5 36.6 83.5 83.5s-36.6 83.5-83.5 83.5c-46.8 0-83.5-36.6-83.5-83.5 0-7.5 1.5-14.8 4.3-21.7L270.5 84.3zm85.5 151.7c9.7 9.7 9.7 25.3 0 35-9.7 9.7-25.3 9.7-35 0L325.9 308l-55.3-55.3c-9.7-9.7-25.3-9.7-35 0-9.7 9.7-9.7 25.3 0 35l55.3 55.3 55.3-55.3zm181.1 107.2c-46.8 0-83.5-36.6-83.5-83.5s36.6-83.5 83.5-83.5 83.5 36.6 83.5 83.5-36.6 83.5-83.5 83.5zm0-140.7c-37 0-67.2 30.2-67.2 67.2s30.2 67.2 67.2 67.2 67.2-30.2 67.2-67.2-30.2-67.2-67.2-67.2z"/>
</svg>
